<svg width="1505" height="687" viewBox="0 0 1505 687" fill="none" xmlns="http://www.w3.org/2000/svg">
<path d="M1454.91 1.88774C1448.11 3.22107 1436.37 7.22107 1422.24 12.9544C1417.71 14.6877 1387.57 28.9544 1384.24 30.8211C1341.44 55.0877 1327.57 67.2211 1269.17 131.221C1232.77 171.221 1227.71 177.621 1198.91 217.888C1189.44 231.088 1175.04 251.221 1166.91 262.554C1145.17 292.954 1133.04 311.888 1117.97 339.221C1113.71 346.954 1093.04 388.688 1087.57 400.554C1084.51 407.088 1080.24 416.154 1078.24 420.554C1076.11 424.954 1072.24 433.621 1069.57 439.888C1066.77 446.154 1062.64 455.754 1060.24 461.221C1057.84 466.688 1053.17 477.488 1049.84 485.221C1042.24 502.954 1037.04 513.221 1034.51 516.154C1031.84 519.221 1027.17 519.221 1024.51 516.154C1022.51 513.888 1008.91 482.821 1006.24 474.421C1005.71 472.421 1002.91 465.221 1000.24 458.421C997.442 451.488 994.108 443.221 992.908 439.888C991.575 436.554 985.308 420.954 978.908 405.221C972.508 389.488 965.841 372.688 964.241 367.888C954.375 339.888 948.241 328.021 938.508 317.888C929.708 308.554 926.775 306.288 916.908 299.888C909.841 295.354 909.175 295.221 896.241 295.221C883.708 295.221 882.375 295.488 874.908 299.621C863.975 305.621 860.241 311.221 851.708 334.554C850.508 337.888 849.041 341.221 848.508 342.154C847.975 343.088 846.108 347.888 844.375 352.821C842.641 357.754 839.708 365.754 837.975 370.554C831.575 387.221 826.108 402.021 821.441 415.221C818.908 422.554 815.041 432.954 812.908 438.554C810.775 444.021 805.975 456.954 802.241 467.221C798.375 477.488 793.841 489.754 791.975 494.554C788.641 503.488 786.508 509.221 780.108 526.554C778.108 532.021 775.441 538.954 774.108 541.888C772.775 544.821 770.775 550.021 769.708 553.221C768.108 558.154 758.508 582.688 754.241 592.554C753.575 594.021 750.908 600.288 748.241 606.554C745.575 612.821 742.241 620.421 740.775 623.488C737.708 630.021 736.241 640.421 737.441 647.088C739.175 656.421 750.375 665.221 768.241 671.621C777.575 675.088 804.908 677.621 810.508 675.621C819.308 672.554 838.375 638.288 850.508 603.888C851.975 599.888 854.241 594.154 855.708 591.088C857.041 588.154 858.241 584.688 858.241 583.354C858.241 582.154 859.041 579.488 860.108 577.488C861.175 575.488 864.375 566.688 867.441 557.888C870.375 549.088 874.641 536.821 876.908 530.554C879.175 524.288 881.841 516.688 882.775 513.621C887.175 500.021 894.908 483.488 897.841 481.621C900.641 479.754 901.308 479.754 904.241 481.754C906.108 482.954 909.841 488.288 912.375 493.621C918.108 505.488 921.175 513.888 931.575 546.821C932.908 551.488 935.175 558.154 936.241 561.888C941.175 576.821 949.841 605.754 961.575 646.554C966.375 662.954 970.908 671.354 977.308 675.621C980.108 677.488 983.308 680.688 984.375 682.821L986.375 686.554L1012.64 686.288C1032.51 686.021 1038.91 685.488 1039.04 684.154C1039.17 683.354 1039.31 681.888 1039.44 681.221C1039.44 680.421 1042.24 678.688 1045.44 677.221C1054.37 673.488 1067.44 659.754 1073.57 647.888C1080.91 633.354 1087.57 619.888 1087.57 619.354C1087.57 618.821 1099.31 593.488 1113.84 562.554C1117.17 555.621 1121.57 546.288 1123.57 541.888C1125.71 537.488 1130.11 528.154 1133.44 520.954C1136.77 513.888 1139.57 507.754 1139.57 507.221C1139.57 506.154 1168.37 448.288 1176.64 432.821C1186.51 414.288 1208.91 374.954 1226.91 344.821C1241.57 320.154 1249.71 307.088 1267.04 280.688C1269.97 276.421 1273.17 271.488 1274.24 269.754C1276.11 266.821 1289.44 247.488 1294.91 239.888C1296.37 237.754 1299.71 233.221 1302.24 229.888C1304.77 226.554 1311.71 217.354 1317.57 209.621C1327.17 196.954 1356.11 160.821 1362.24 153.888C1392.11 120.154 1403.04 109.621 1426.51 91.6211C1447.97 75.2211 1454.91 70.4211 1464.37 65.2211C1468.64 62.9544 1472.91 60.5544 1473.57 59.8877C1474.37 59.3544 1478.51 56.9544 1482.91 54.5544C1497.44 46.8211 1504.77 37.2211 1504.91 25.6211C1504.91 18.6877 1499.17 10.5544 1489.71 4.15441C1483.84 0.287741 1482.51 -0.112259 1473.04 0.0210742C1467.44 0.154408 1459.31 0.954408 1454.91 1.88774Z" fill="black"/>
<path d="M1024.24 139.621C1017.84 143.621 1010.38 161.754 1003.71 189.221C994.775 226.288 994.108 230.288 993.308 247.621C992.508 263.754 992.775 265.488 995.042 268.021C1002.78 276.554 1012.38 276.288 1020.78 267.088C1023.84 263.888 1026.24 260.288 1026.24 259.088C1026.24 257.888 1027.44 251.754 1028.91 245.354C1034.78 219.888 1035.58 216.021 1037.44 203.888C1038.51 196.954 1040.11 186.688 1041.04 181.221C1043.58 165.488 1044.11 149.621 1042.24 145.088C1040.51 140.954 1034.91 137.221 1030.64 137.221C1029.31 137.221 1026.51 138.288 1024.24 139.621Z" fill="black"/>
<path d="M1099.97 143.221C1093.44 147.754 1084.91 166.421 1080.24 186.554C1079.17 190.554 1077.17 198.821 1075.71 204.954C1074.11 211.088 1072.91 218.021 1072.91 220.421C1072.91 222.821 1071.97 227.754 1070.91 231.488C1068.11 240.688 1065.97 264.421 1067.44 268.288C1069.31 273.221 1076.51 278.554 1081.31 278.554C1086.77 278.554 1093.97 274.821 1097.17 270.554C1099.97 266.688 1102.51 258.021 1106.24 238.554C1107.84 230.821 1109.97 221.621 1111.04 218.021C1112.11 214.554 1112.91 209.354 1112.91 206.688C1112.91 204.021 1113.84 198.021 1114.91 193.221C1117.57 181.754 1119.84 160.288 1118.91 154.954C1117.97 149.354 1110.24 141.221 1106.11 141.221C1104.24 141.221 1101.57 142.154 1099.97 143.221Z" fill="black"/>
<path d="M182.242 268.821C174.242 270.021 156.909 275.088 149.576 278.288C138.242 283.221 127.842 290.288 110.376 305.088C92.9091 319.754 87.1758 325.088 81.5758 332.421C79.4424 335.221 75.5758 340.021 73.0424 343.088C58.2424 361.088 45.4424 382.288 37.0424 402.954C30.6424 418.421 23.5758 437.354 23.5758 438.821C23.5758 439.488 22.7758 442.021 21.7091 444.288C20.6424 446.688 17.8424 455.754 15.5758 464.554C13.3091 473.354 10.5091 484.154 9.30909 488.554C7.30909 496.421 6.10909 506.154 3.70909 535.221C3.04242 543.354 1.70909 551.488 0.909091 553.488C-0.424242 556.288 -0.290909 558.021 1.30909 562.821C2.50909 565.888 3.70909 571.221 4.24242 574.554C5.57576 584.821 13.0424 604.021 20.6424 617.488C35.0424 642.954 58.9091 662.288 83.3091 668.554C87.4424 669.621 94.2424 671.354 98.2424 672.421C102.242 673.488 108.509 674.688 111.976 675.221C115.976 675.754 119.576 677.221 121.309 678.954C124.909 682.554 137.309 684.021 156.909 682.954C167.842 682.288 171.442 681.621 173.176 679.888C174.376 678.554 179.576 676.554 184.509 675.354C197.309 672.421 209.976 667.488 222.242 660.554C235.576 652.954 242.642 647.754 263.442 630.421C278.242 618.154 281.442 614.554 290.642 601.088C301.576 584.954 303.176 582.421 307.442 573.888C308.909 570.954 311.042 567.088 312.109 565.221C317.176 556.821 332.909 516.421 337.042 501.221C341.576 484.821 341.709 481.088 338.376 473.888C332.909 461.888 327.576 460.021 290.242 457.488C265.709 455.754 206.376 459.221 181.576 463.888C177.976 464.554 168.376 466.021 160.242 467.088C132.376 470.954 119.976 478.688 109.042 499.088C104.642 507.488 103.576 516.288 106.376 523.488C109.842 532.821 129.042 546.554 138.509 546.554C142.109 546.554 162.642 541.888 175.709 538.021C201.042 530.554 207.309 528.954 222.642 525.888C248.242 520.821 251.576 521.354 251.576 530.288C251.576 536.554 246.509 552.688 242.776 558.421C235.442 569.621 231.709 574.021 222.642 581.888C201.442 600.554 177.309 610.021 144.242 612.554C135.842 613.221 131.042 612.821 121.842 610.688C108.509 607.488 101.042 603.088 93.7091 594.154C79.9758 577.354 70.9091 531.754 75.7091 503.221C76.5091 498.821 77.5758 491.221 78.2424 486.154C78.9091 481.221 81.0424 471.888 83.0424 465.488C86.2424 454.821 88.3758 450.288 99.0424 431.221C101.042 427.488 104.109 421.888 105.976 418.554C107.709 415.354 110.242 410.954 111.709 409.088C113.042 407.088 114.242 405.088 114.242 404.688C114.242 401.488 150.642 359.221 159.442 352.154C174.376 340.421 184.909 337.754 207.576 339.621C218.642 340.554 224.909 341.754 230.242 344.154C242.376 349.354 252.376 355.621 259.442 362.554C272.242 374.954 283.309 374.288 298.909 360.154C306.509 353.221 314.109 341.888 314.242 337.621C314.242 331.488 297.709 314.954 277.576 301.088C260.242 289.221 236.776 277.221 224.376 273.888C220.642 272.954 214.909 271.221 211.709 270.021C206.242 268.021 191.042 267.354 182.242 268.821Z" fill="black"/>
<path d="M576.377 308.288C569.043 315.888 568.91 316.154 552.643 341.221C546.643 350.421 536.11 366.554 529.177 377.221C522.243 387.888 512.11 403.488 506.51 411.888C501.043 420.288 494.777 429.621 492.777 432.554C489.043 437.888 460.51 484.288 454.377 494.954C452.643 498.021 449.843 502.954 448.11 505.888C446.377 508.821 443.443 513.888 441.577 517.221C439.577 520.554 436.643 525.621 434.91 528.554C433.177 531.488 430.377 536.288 428.777 539.221C427.177 542.154 424.91 546.021 423.577 547.888C420.91 551.754 400.377 587.888 392.643 602.554C389.71 608.021 384.51 617.088 381.043 622.554C375.177 632.021 374.91 633.088 374.91 642.154C374.91 655.621 376.91 658.021 393.043 663.488C399.977 665.888 407.71 667.888 410.243 667.888C419.443 667.888 431.71 658.021 440.243 644.021C440.91 642.821 442.51 640.288 443.843 638.288C446.777 633.888 458.777 610.154 466.243 593.888C469.177 587.354 473.043 580.554 474.643 578.688C478.377 574.821 486.377 571.221 494.243 570.154C497.577 569.621 511.71 567.754 525.577 565.754C543.443 563.354 557.443 562.288 572.91 562.021C593.044 561.888 595.31 562.154 600.244 564.688C609.444 569.621 613.177 576.154 615.577 591.354C618.644 610.688 633.044 646.554 643.31 660.688C647.71 666.688 656.51 673.221 663.577 675.621C669.577 677.754 678.91 677.621 683.31 675.354C692.377 670.554 700.644 657.488 701.844 646.021C702.377 640.421 701.71 637.221 697.844 627.221C695.31 620.554 692.244 612.821 691.177 609.888C688.91 603.888 680.377 570.954 674.244 544.554C671.977 534.954 669.31 523.621 668.11 519.221C666.91 514.821 664.91 506.154 663.577 499.888C662.244 493.621 659.577 481.621 657.577 473.221C644.377 417.621 632.51 362.954 628.244 338.421C624.11 314.288 622.644 311.488 609.71 304.688C604.377 301.888 601.31 301.221 593.177 301.221H583.177L576.377 308.288ZM571.31 427.354C576.377 428.821 580.51 439.354 582.91 457.221C583.444 460.554 584.91 467.088 586.244 471.888C589.444 483.088 590.91 501.354 589.044 504.954C587.044 508.821 575.977 515.221 561.177 521.088C554.11 524.021 543.843 528.421 538.377 531.088C512.777 543.354 503.71 536.421 514.91 512.954C517.443 507.621 520.643 501.354 521.843 499.221C523.177 496.954 526.91 490.688 530.11 485.221C533.31 479.754 537.577 472.554 539.577 469.221C541.577 465.888 546.777 456.421 550.91 448.154C555.177 439.888 560.377 431.621 562.51 429.888C566.777 426.288 566.91 426.288 571.31 427.354Z" fill="black"/>
</svg>
