<svg width="90" height="80" viewBox="0 0 90 80" fill="none" xmlns="http://www.w3.org/2000/svg">
<mask id="path-1-inside-1_1_29" fill="white">
<path d="M83.9526 0.219773C83.1566 0.375073 81.7846 0.840874 80.1316 1.50847C79.6016 1.71037 76.0776 3.37167 75.6876 3.58907C70.6826 6.41487 69.0606 7.82778 62.2316 15.2805C57.9746 19.9384 57.3826 20.6837 54.0146 25.3727C52.9076 26.9098 51.2236 29.2543 50.2726 30.574C47.7306 34.114 46.3116 36.3188 44.5496 39.5017C44.0516 40.4022 41.6336 45.2621 40.9946 46.6438C40.6366 47.4047 40.1366 48.4604 39.9036 48.9728C39.6536 49.4852 39.2016 50.494 38.8896 51.224C38.5616 51.954 38.0786 53.072 37.7986 53.708C37.5176 54.345 36.9716 55.603 36.5816 56.503C35.6936 58.568 35.0846 59.764 34.7896 60.105C34.4766 60.462 33.9306 60.462 33.6196 60.105C33.3856 59.841 31.7956 56.224 31.4836 55.246C31.4216 55.013 31.0936 54.174 30.7816 53.382C30.4546 52.575 30.0646 51.612 29.9246 51.224C29.7686 50.836 29.0356 49.0194 28.2866 47.1873C27.5386 45.3552 26.7586 43.3989 26.5716 42.8399C25.4176 39.5794 24.7006 38.1975 23.5626 37.0175C22.5336 35.9306 22.1906 35.6667 21.0366 34.9215C20.2096 34.3935 20.1316 34.378 18.6196 34.378C17.1536 34.378 16.9976 34.4091 16.1246 34.8904C14.8466 35.5891 14.4096 36.2412 13.4116 38.9583C13.2716 39.3465 13.0996 39.7346 13.0376 39.8433C12.9756 39.952 12.7566 40.511 12.5546 41.0854C12.3516 41.6599 12.0086 42.5914 11.8057 43.1504C11.0573 45.0912 10.4179 46.8147 9.87217 48.3518C9.57587 49.2057 9.12367 50.417 8.87427 51.069C8.62487 51.706 8.06347 53.212 7.62687 54.407C7.17477 55.603 6.64447 57.031 6.42627 57.59C6.03637 58.63 5.78697 59.298 5.03847 61.316C4.80467 61.953 4.49277 62.76 4.33687 63.102C4.18097 63.443 3.94707 64.049 3.82227 64.422C3.63517 64.996 2.51257 67.853 2.01357 69.002C1.93567 69.173 1.62376 69.903 1.31186 70.632C1.00006 71.362 0.610172 72.247 0.438772 72.604C0.0800723 73.365 -0.0914279 74.576 0.0488721 75.352C0.251672 76.439 1.56147 77.464 3.65077 78.209C4.74227 78.613 7.93866 78.908 8.59356 78.675C9.62266 78.318 11.8526 74.328 13.2716 70.322C13.4426 69.856 13.7076 69.188 13.8796 68.831C14.0356 68.49 14.1756 68.086 14.1756 67.931C14.1756 67.791 14.2696 67.48 14.3936 67.248C14.5186 67.015 14.8926 65.99 15.2516 64.965C15.5946 63.94 16.0936 62.512 16.3586 61.782C16.6236 61.052 16.9356 60.167 17.0446 59.81C17.5596 58.227 18.4636 56.301 18.8066 56.084C19.1336 55.867 19.2126 55.867 19.5546 56.099C19.7736 56.239 20.2096 56.86 20.5066 57.481C21.1766 58.863 21.5356 59.841 22.7516 63.676C22.9076 64.22 23.1726 64.996 23.2976 65.431C23.8746 67.17 24.8876 70.539 26.2596 75.29C26.8216 77.2 27.3516 78.178 28.0996 78.675C28.4276 78.892 28.8016 79.265 28.9266 79.513L29.1606 79.948L32.2316 79.917C34.5556 79.886 35.3036 79.824 35.3186 79.669C35.3346 79.575 35.3506 79.405 35.3656 79.327C35.3656 79.234 35.6936 79.032 36.0676 78.861C37.1116 78.427 38.6406 76.827 39.3566 75.445C40.2156 73.753 40.9946 72.185 40.9946 72.123C40.9946 72.061 42.3676 69.111 44.0666 65.508C44.4556 64.701 44.9706 63.614 45.2046 63.102C45.4546 62.59 45.9686 61.503 46.3586 60.664C46.7476 59.841 47.0756 59.127 47.0756 59.065C47.0756 58.941 50.4436 52.202 51.4106 50.401C52.5646 48.2431 55.1846 43.6628 57.2896 40.1538C59.0036 37.2814 59.9556 35.7599 61.9816 32.6856C62.3246 32.1888 62.6986 31.6143 62.8236 31.4124C63.0426 31.0709 64.6016 28.8196 65.2416 27.9346C65.4116 27.6861 65.8026 27.1582 66.0986 26.7701C66.3946 26.3818 67.2056 25.3105 67.8916 24.41C69.0136 22.935 72.3986 18.7273 73.1156 17.92C76.6086 13.9917 77.8866 12.7652 80.6306 10.6691C83.1406 8.75938 83.9526 8.20037 85.0586 7.59487C85.5576 7.33087 86.0576 7.05147 86.1346 6.97377C86.2276 6.91167 86.7126 6.63217 87.2266 6.35277C88.9256 5.45217 89.7826 4.33428 89.7996 2.98348C89.7996 2.17618 89.1286 1.22897 88.0216 0.483773C87.3356 0.0334733 87.1796 -0.013127 86.0726 0.002473C85.4176 0.017973 84.4666 0.111073 83.9526 0.219773Z"/>
<path d="M33.5886 16.2585C32.8396 16.7243 31.9676 18.8358 31.1876 22.0343C30.1426 26.3507 30.0646 26.8165 29.9706 28.8349C29.8776 30.7136 29.9086 30.9155 30.1736 31.2104C31.0786 32.2041 32.2016 32.1731 33.1836 31.1018C33.5416 30.7292 33.8216 30.31 33.8216 30.1702C33.8216 30.0305 33.9626 29.3162 34.1346 28.5709C34.8206 25.6054 34.9146 25.1551 35.1316 23.7423C35.2566 22.9348 35.4436 21.7394 35.5526 21.1027C35.8496 19.2706 35.9116 17.423 35.6926 16.8951C35.4906 16.4137 34.8356 15.979 34.3366 15.979C34.1806 15.979 33.8536 16.1033 33.5886 16.2585Z"/>
<path d="M42.4436 16.6777C41.6806 17.2056 40.6826 19.3793 40.1366 21.7238C40.0116 22.1896 39.7776 23.1522 39.6066 23.8664C39.4196 24.5807 39.2796 25.3881 39.2796 25.6675C39.2796 25.947 39.1696 26.5214 39.0456 26.9563C38.7186 28.0276 38.4676 30.7913 38.6396 31.2416C38.8586 31.816 39.7006 32.437 40.2616 32.437C40.9006 32.437 41.7426 32.0023 42.1166 31.5054C42.4436 31.0552 42.7406 30.046 43.1776 27.7791C43.3646 26.8786 43.6136 25.8073 43.7386 25.3881C43.8636 24.9843 43.9576 24.3788 43.9576 24.0683C43.9576 23.7578 44.0656 23.0591 44.1916 22.5001C44.5026 21.1648 44.7676 18.6651 44.6586 18.044C44.5486 17.3919 43.6446 16.4448 43.1616 16.4448C42.9436 16.4448 42.6316 16.5535 42.4436 16.6777Z"/>
</mask>
<path d="M83.9526 0.219773C83.1566 0.375073 81.7846 0.840874 80.1316 1.50847C79.6016 1.71037 76.0776 3.37167 75.6876 3.58907C70.6826 6.41487 69.0606 7.82778 62.2316 15.2805C57.9746 19.9384 57.3826 20.6837 54.0146 25.3727C52.9076 26.9098 51.2236 29.2543 50.2726 30.574C47.7306 34.114 46.3116 36.3188 44.5496 39.5017C44.0516 40.4022 41.6336 45.2621 40.9946 46.6438C40.6366 47.4047 40.1366 48.4604 39.9036 48.9728C39.6536 49.4852 39.2016 50.494 38.8896 51.224C38.5616 51.954 38.0786 53.072 37.7986 53.708C37.5176 54.345 36.9716 55.603 36.5816 56.503C35.6936 58.568 35.0846 59.764 34.7896 60.105C34.4766 60.462 33.9306 60.462 33.6196 60.105C33.3856 59.841 31.7956 56.224 31.4836 55.246C31.4216 55.013 31.0936 54.174 30.7816 53.382C30.4546 52.575 30.0646 51.612 29.9246 51.224C29.7686 50.836 29.0356 49.0194 28.2866 47.1873C27.5386 45.3552 26.7586 43.3989 26.5716 42.8399C25.4176 39.5794 24.7006 38.1975 23.5626 37.0175C22.5336 35.9306 22.1906 35.6667 21.0366 34.9215C20.2096 34.3935 20.1316 34.378 18.6196 34.378C17.1536 34.378 16.9976 34.4091 16.1246 34.8904C14.8466 35.5891 14.4096 36.2412 13.4116 38.9583C13.2716 39.3465 13.0996 39.7346 13.0376 39.8433C12.9756 39.952 12.7566 40.511 12.5546 41.0854C12.3516 41.6599 12.0086 42.5914 11.8057 43.1504C11.0573 45.0912 10.4179 46.8147 9.87217 48.3518C9.57587 49.2057 9.12367 50.417 8.87427 51.069C8.62487 51.706 8.06347 53.212 7.62687 54.407C7.17477 55.603 6.64447 57.031 6.42627 57.59C6.03637 58.63 5.78697 59.298 5.03847 61.316C4.80467 61.953 4.49277 62.76 4.33687 63.102C4.18097 63.443 3.94707 64.049 3.82227 64.422C3.63517 64.996 2.51257 67.853 2.01357 69.002C1.93567 69.173 1.62376 69.903 1.31186 70.632C1.00006 71.362 0.610172 72.247 0.438772 72.604C0.0800723 73.365 -0.0914279 74.576 0.0488721 75.352C0.251672 76.439 1.56147 77.464 3.65077 78.209C4.74227 78.613 7.93866 78.908 8.59356 78.675C9.62266 78.318 11.8526 74.328 13.2716 70.322C13.4426 69.856 13.7076 69.188 13.8796 68.831C14.0356 68.49 14.1756 68.086 14.1756 67.931C14.1756 67.791 14.2696 67.48 14.3936 67.248C14.5186 67.015 14.8926 65.99 15.2516 64.965C15.5946 63.94 16.0936 62.512 16.3586 61.782C16.6236 61.052 16.9356 60.167 17.0446 59.81C17.5596 58.227 18.4636 56.301 18.8066 56.084C19.1336 55.867 19.2126 55.867 19.5546 56.099C19.7736 56.239 20.2096 56.86 20.5066 57.481C21.1766 58.863 21.5356 59.841 22.7516 63.676C22.9076 64.22 23.1726 64.996 23.2976 65.431C23.8746 67.17 24.8876 70.539 26.2596 75.29C26.8216 77.2 27.3516 78.178 28.0996 78.675C28.4276 78.892 28.8016 79.265 28.9266 79.513L29.1606 79.948L32.2316 79.917C34.5556 79.886 35.3036 79.824 35.3186 79.669C35.3346 79.575 35.3506 79.405 35.3656 79.327C35.3656 79.234 35.6936 79.032 36.0676 78.861C37.1116 78.427 38.6406 76.827 39.3566 75.445C40.2156 73.753 40.9946 72.185 40.9946 72.123C40.9946 72.061 42.3676 69.111 44.0666 65.508C44.4556 64.701 44.9706 63.614 45.2046 63.102C45.4546 62.59 45.9686 61.503 46.3586 60.664C46.7476 59.841 47.0756 59.127 47.0756 59.065C47.0756 58.941 50.4436 52.202 51.4106 50.401C52.5646 48.2431 55.1846 43.6628 57.2896 40.1538C59.0036 37.2814 59.9556 35.7599 61.9816 32.6856C62.3246 32.1888 62.6986 31.6143 62.8236 31.4124C63.0426 31.0709 64.6016 28.8196 65.2416 27.9346C65.4116 27.6861 65.8026 27.1582 66.0986 26.7701C66.3946 26.3818 67.2056 25.3105 67.8916 24.41C69.0136 22.935 72.3986 18.7273 73.1156 17.92C76.6086 13.9917 77.8866 12.7652 80.6306 10.6691C83.1406 8.75938 83.9526 8.20037 85.0586 7.59487C85.5576 7.33087 86.0576 7.05147 86.1346 6.97377C86.2276 6.91167 86.7126 6.63217 87.2266 6.35277C88.9256 5.45217 89.7826 4.33428 89.7996 2.98348C89.7996 2.17618 89.1286 1.22897 88.0216 0.483773C87.3356 0.0334733 87.1796 -0.013127 86.0726 0.002473C85.4176 0.017973 84.4666 0.111073 83.9526 0.219773Z" fill="white"/>
<path d="M33.5886 16.2585C32.8396 16.7243 31.9676 18.8358 31.1876 22.0343C30.1426 26.3507 30.0646 26.8165 29.9706 28.8349C29.8776 30.7136 29.9086 30.9155 30.1736 31.2104C31.0786 32.2041 32.2016 32.1731 33.1836 31.1018C33.5416 30.7292 33.8216 30.31 33.8216 30.1702C33.8216 30.0305 33.9626 29.3162 34.1346 28.5709C34.8206 25.6054 34.9146 25.1551 35.1316 23.7423C35.2566 22.9348 35.4436 21.7394 35.5526 21.1027C35.8496 19.2706 35.9116 17.423 35.6926 16.8951C35.4906 16.4137 34.8356 15.979 34.3366 15.979C34.1806 15.979 33.8536 16.1033 33.5886 16.2585Z" fill="white"/>
<path d="M42.4436 16.6777C41.6806 17.2056 40.6826 19.3793 40.1366 21.7238C40.0116 22.1896 39.7776 23.1522 39.6066 23.8664C39.4196 24.5807 39.2796 25.3881 39.2796 25.6675C39.2796 25.947 39.1696 26.5214 39.0456 26.9563C38.7186 28.0276 38.4676 30.7913 38.6396 31.2416C38.8586 31.816 39.7006 32.437 40.2616 32.437C40.9006 32.437 41.7426 32.0023 42.1166 31.5054C42.4436 31.0552 42.7406 30.046 43.1776 27.7791C43.3646 26.8786 43.6136 25.8073 43.7386 25.3881C43.8636 24.9843 43.9576 24.3788 43.9576 24.0683C43.9576 23.7578 44.0656 23.0591 44.1916 22.5001C44.5026 21.1648 44.7676 18.6651 44.6586 18.044C44.5486 17.3919 43.6446 16.4448 43.1616 16.4448C42.9436 16.4448 42.6316 16.5535 42.4436 16.6777Z" fill="white"/>
<path d="M83.9526 0.219773C83.1566 0.375073 81.7846 0.840874 80.1316 1.50847C79.6016 1.71037 76.0776 3.37167 75.6876 3.58907C70.6826 6.41487 69.0606 7.82778 62.2316 15.2805C57.9746 19.9384 57.3826 20.6837 54.0146 25.3727C52.9076 26.9098 51.2236 29.2543 50.2726 30.574C47.7306 34.114 46.3116 36.3188 44.5496 39.5017C44.0516 40.4022 41.6336 45.2621 40.9946 46.6438C40.6366 47.4047 40.1366 48.4604 39.9036 48.9728C39.6536 49.4852 39.2016 50.494 38.8896 51.224C38.5616 51.954 38.0786 53.072 37.7986 53.708C37.5176 54.345 36.9716 55.603 36.5816 56.503C35.6936 58.568 35.0846 59.764 34.7896 60.105C34.4766 60.462 33.9306 60.462 33.6196 60.105C33.3856 59.841 31.7956 56.224 31.4836 55.246C31.4216 55.013 31.0936 54.174 30.7816 53.382C30.4546 52.575 30.0646 51.612 29.9246 51.224C29.7686 50.836 29.0356 49.0194 28.2866 47.1873C27.5386 45.3552 26.7586 43.3989 26.5716 42.8399C25.4176 39.5794 24.7006 38.1975 23.5626 37.0175C22.5336 35.9306 22.1906 35.6667 21.0366 34.9215C20.2096 34.3935 20.1316 34.378 18.6196 34.378C17.1536 34.378 16.9976 34.4091 16.1246 34.8904C14.8466 35.5891 14.4096 36.2412 13.4116 38.9583C13.2716 39.3465 13.0996 39.7346 13.0376 39.8433C12.9756 39.952 12.7566 40.511 12.5546 41.0854C12.3516 41.6599 12.0086 42.5914 11.8057 43.1504C11.0573 45.0912 10.4179 46.8147 9.87217 48.3518C9.57587 49.2057 9.12367 50.417 8.87427 51.069C8.62487 51.706 8.06347 53.212 7.62687 54.407C7.17477 55.603 6.64447 57.031 6.42627 57.59C6.03637 58.63 5.78697 59.298 5.03847 61.316C4.80467 61.953 4.49277 62.76 4.33687 63.102C4.18097 63.443 3.94707 64.049 3.82227 64.422C3.63517 64.996 2.51257 67.853 2.01357 69.002C1.93567 69.173 1.62376 69.903 1.31186 70.632C1.00006 71.362 0.610172 72.247 0.438772 72.604C0.0800723 73.365 -0.0914279 74.576 0.0488721 75.352C0.251672 76.439 1.56147 77.464 3.65077 78.209C4.74227 78.613 7.93866 78.908 8.59356 78.675C9.62266 78.318 11.8526 74.328 13.2716 70.322C13.4426 69.856 13.7076 69.188 13.8796 68.831C14.0356 68.49 14.1756 68.086 14.1756 67.931C14.1756 67.791 14.2696 67.48 14.3936 67.248C14.5186 67.015 14.8926 65.99 15.2516 64.965C15.5946 63.94 16.0936 62.512 16.3586 61.782C16.6236 61.052 16.9356 60.167 17.0446 59.81C17.5596 58.227 18.4636 56.301 18.8066 56.084C19.1336 55.867 19.2126 55.867 19.5546 56.099C19.7736 56.239 20.2096 56.86 20.5066 57.481C21.1766 58.863 21.5356 59.841 22.7516 63.676C22.9076 64.22 23.1726 64.996 23.2976 65.431C23.8746 67.17 24.8876 70.539 26.2596 75.29C26.8216 77.2 27.3516 78.178 28.0996 78.675C28.4276 78.892 28.8016 79.265 28.9266 79.513L29.1606 79.948L32.2316 79.917C34.5556 79.886 35.3036 79.824 35.3186 79.669C35.3346 79.575 35.3506 79.405 35.3656 79.327C35.3656 79.234 35.6936 79.032 36.0676 78.861C37.1116 78.427 38.6406 76.827 39.3566 75.445C40.2156 73.753 40.9946 72.185 40.9946 72.123C40.9946 72.061 42.3676 69.111 44.0666 65.508C44.4556 64.701 44.9706 63.614 45.2046 63.102C45.4546 62.59 45.9686 61.503 46.3586 60.664C46.7476 59.841 47.0756 59.127 47.0756 59.065C47.0756 58.941 50.4436 52.202 51.4106 50.401C52.5646 48.2431 55.1846 43.6628 57.2896 40.1538C59.0036 37.2814 59.9556 35.7599 61.9816 32.6856C62.3246 32.1888 62.6986 31.6143 62.8236 31.4124C63.0426 31.0709 64.6016 28.8196 65.2416 27.9346C65.4116 27.6861 65.8026 27.1582 66.0986 26.7701C66.3946 26.3818 67.2056 25.3105 67.8916 24.41C69.0136 22.935 72.3986 18.7273 73.1156 17.92C76.6086 13.9917 77.8866 12.7652 80.6306 10.6691C83.1406 8.75938 83.9526 8.20037 85.0586 7.59487C85.5576 7.33087 86.0576 7.05147 86.1346 6.97377C86.2276 6.91167 86.7126 6.63217 87.2266 6.35277C88.9256 5.45217 89.7826 4.33428 89.7996 2.98348C89.7996 2.17618 89.1286 1.22897 88.0216 0.483773C87.3356 0.0334733 87.1796 -0.013127 86.0726 0.002473C85.4176 0.017973 84.4666 0.111073 83.9526 0.219773Z" stroke="black" stroke-width="2" mask="url(#path-1-inside-1_1_29)"/>
<path d="M33.5886 16.2585C32.8396 16.7243 31.9676 18.8358 31.1876 22.0343C30.1426 26.3507 30.0646 26.8165 29.9706 28.8349C29.8776 30.7136 29.9086 30.9155 30.1736 31.2104C31.0786 32.2041 32.2016 32.1731 33.1836 31.1018C33.5416 30.7292 33.8216 30.31 33.8216 30.1702C33.8216 30.0305 33.9626 29.3162 34.1346 28.5709C34.8206 25.6054 34.9146 25.1551 35.1316 23.7423C35.2566 22.9348 35.4436 21.7394 35.5526 21.1027C35.8496 19.2706 35.9116 17.423 35.6926 16.8951C35.4906 16.4137 34.8356 15.979 34.3366 15.979C34.1806 15.979 33.8536 16.1033 33.5886 16.2585Z" stroke="black" stroke-width="2" mask="url(#path-1-inside-1_1_29)"/>
<path d="M42.4436 16.6777C41.6806 17.2056 40.6826 19.3793 40.1366 21.7238C40.0116 22.1896 39.7776 23.1522 39.6066 23.8664C39.4196 24.5807 39.2796 25.3881 39.2796 25.6675C39.2796 25.947 39.1696 26.5214 39.0456 26.9563C38.7186 28.0276 38.4676 30.7913 38.6396 31.2416C38.8586 31.816 39.7006 32.437 40.2616 32.437C40.9006 32.437 41.7426 32.0023 42.1166 31.5054C42.4436 31.0552 42.7406 30.046 43.1776 27.7791C43.3646 26.8786 43.6136 25.8073 43.7386 25.3881C43.8636 24.9843 43.9576 24.3788 43.9576 24.0683C43.9576 23.7578 44.0656 23.0591 44.1916 22.5001C44.5026 21.1648 44.7676 18.6651 44.6586 18.044C44.5486 17.3919 43.6446 16.4448 43.1616 16.4448C42.9436 16.4448 42.6316 16.5535 42.4436 16.6777Z" stroke="black" stroke-width="2" mask="url(#path-1-inside-1_1_29)"/>
</svg>
