<svg width="180" height="180" viewBox="0 0 180 180" fill="none" xmlns="http://www.w3.org/2000/svg">
<g clip-path="url(#clip0_79_85)">
<path d="M172.143 50.2198C171.347 50.3751 169.975 50.8409 168.322 51.5085C167.792 51.7104 164.268 53.3717 163.878 53.5891C158.873 56.4149 157.251 57.8278 150.422 65.2805C146.165 69.9384 145.573 70.6837 142.205 75.3727C141.098 76.9098 139.414 79.2543 138.463 80.574C135.921 84.114 134.502 86.3188 132.74 89.5017C132.242 90.4022 129.824 95.2621 129.185 96.6438C128.827 97.4047 128.327 98.4604 128.094 98.9728C127.844 99.4852 127.392 100.494 127.08 101.224C126.752 101.954 126.269 103.072 125.989 103.708C125.708 104.345 125.162 105.603 124.772 106.503C123.884 108.568 123.275 109.764 122.98 110.105C122.667 110.462 122.121 110.462 121.81 110.105C121.576 109.841 119.986 106.224 119.674 105.246C119.612 105.013 119.284 104.174 118.972 103.382C118.645 102.575 118.255 101.612 118.115 101.224C117.959 100.836 117.226 99.0194 116.477 97.1873C115.729 95.3552 114.949 93.3989 114.762 92.8399C113.608 89.5794 112.891 88.1975 111.753 87.0175C110.724 85.9306 110.381 85.6667 109.227 84.9215C108.4 84.3935 108.322 84.378 106.81 84.378C105.344 84.378 105.188 84.4091 104.315 84.8904C103.037 85.5891 102.6 86.2412 101.602 88.9583C101.462 89.3465 101.29 89.7346 101.228 89.8433C101.166 89.952 100.947 90.511 100.745 91.0854C100.542 91.6599 100.199 92.5914 99.9961 93.1504C99.2477 95.0912 98.6083 96.8147 98.0626 98.3518C97.7663 99.2057 97.3141 100.417 97.0647 101.069C96.8153 101.706 96.2539 103.212 95.8173 104.407C95.3652 105.603 94.8349 107.031 94.6167 107.59C94.2268 108.63 93.9774 109.298 93.2289 111.316C92.9951 111.953 92.6832 112.76 92.5273 113.102C92.3714 113.443 92.1375 114.049 92.0127 114.422C91.8256 114.996 90.703 117.853 90.204 119.002C90.1261 119.173 89.8142 119.903 89.5023 120.632C89.1905 121.362 88.8006 122.247 88.6292 122.604C88.2705 123.365 88.099 124.576 88.2393 125.352C88.4421 126.439 89.7519 127.464 91.8412 128.209C92.9327 128.613 96.1291 128.908 96.784 128.675C97.8131 128.318 100.043 124.328 101.462 120.322C101.633 119.856 101.898 119.188 102.07 118.831C102.226 118.49 102.366 118.086 102.366 117.931C102.366 117.791 102.46 117.48 102.584 117.248C102.709 117.015 103.083 115.99 103.442 114.965C103.785 113.94 104.284 112.512 104.549 111.782C104.814 111.052 105.126 110.167 105.235 109.81C105.75 108.227 106.654 106.301 106.997 106.084C107.324 105.867 107.403 105.867 107.745 106.099C107.964 106.239 108.4 106.86 108.697 107.481C109.367 108.863 109.726 109.841 110.942 113.676C111.098 114.22 111.363 114.996 111.488 115.431C112.065 117.17 113.078 120.539 114.45 125.29C115.012 127.2 115.542 128.178 116.29 128.675C116.618 128.892 116.992 129.265 117.117 129.513L117.351 129.948L120.422 129.917C122.746 129.886 123.494 129.824 123.509 129.669C123.525 129.575 123.541 129.405 123.556 129.327C123.556 129.234 123.884 129.032 124.258 128.861C125.302 128.427 126.831 126.827 127.547 125.445C128.406 123.753 129.185 122.185 129.185 122.123C129.185 122.061 130.558 119.111 132.257 115.508C132.646 114.701 133.161 113.614 133.395 113.102C133.645 112.59 134.159 111.503 134.549 110.664C134.938 109.841 135.266 109.127 135.266 109.065C135.266 108.941 138.634 102.202 139.601 100.401C140.755 98.2431 143.375 93.6628 145.48 90.1538C147.194 87.2814 148.146 85.7599 150.172 82.6856C150.515 82.1888 150.889 81.6143 151.014 81.4124C151.233 81.0709 152.792 78.8196 153.432 77.9346C153.602 77.6861 153.993 77.1582 154.289 76.7701C154.585 76.3818 155.396 75.3105 156.082 74.41C157.204 72.935 160.589 68.7273 161.306 67.92C164.799 63.9917 166.077 62.7652 168.821 60.6691C171.331 58.7594 172.143 58.2004 173.249 57.5949C173.748 57.3309 174.248 57.0515 174.325 56.9738C174.418 56.9117 174.903 56.6322 175.417 56.3528C177.116 55.4522 177.973 54.3343 177.99 52.9835C177.99 52.1762 177.319 51.229 176.212 50.4838C175.526 50.0335 175.37 49.9869 174.263 50.0025C173.608 50.018 172.657 50.1111 172.143 50.2198Z" fill="black"/>
<path d="M121.779 66.2585C121.03 66.7243 120.158 68.8358 119.378 72.0343C118.333 76.3507 118.255 76.8165 118.161 78.8349C118.068 80.7136 118.099 80.9155 118.364 81.2104C119.269 82.2041 120.392 82.1731 121.374 81.1018C121.732 80.7292 122.012 80.31 122.012 80.1702C122.012 80.0305 122.153 79.3162 122.325 78.5709C123.011 75.6054 123.105 75.1551 123.322 73.7423C123.447 72.9348 123.634 71.7394 123.743 71.1027C124.04 69.2706 124.102 67.423 123.883 66.8951C123.681 66.4137 123.026 65.979 122.527 65.979C122.371 65.979 122.044 66.1033 121.779 66.2585Z" fill="black"/>
<path d="M130.634 66.6777C129.871 67.2056 128.873 69.3793 128.327 71.7238C128.202 72.1896 127.968 73.1522 127.797 73.8664C127.61 74.5807 127.47 75.3881 127.47 75.6675C127.47 75.947 127.36 76.5214 127.236 76.9563C126.909 78.0276 126.658 80.7913 126.83 81.2416C127.049 81.816 127.891 82.437 128.452 82.437C129.091 82.437 129.933 82.0023 130.307 81.5054C130.634 81.0552 130.931 80.046 131.368 77.7791C131.555 76.8786 131.804 75.8073 131.929 75.3881C132.054 74.9843 132.148 74.3788 132.148 74.0683C132.148 73.7578 132.256 73.0591 132.382 72.5001C132.693 71.1648 132.958 68.6651 132.849 68.044C132.739 67.3919 131.835 66.4448 131.352 66.4448C131.134 66.4448 130.822 66.5535 130.634 66.6777Z" fill="black"/>
<path d="M23.312 81.3037C22.3765 81.4435 20.3495 82.0335 19.4919 82.4061C18.1665 82.9806 16.9503 83.8035 14.9078 85.5269C12.8651 87.2348 12.1946 87.8559 11.5398 88.7098C11.2903 89.0359 10.8381 89.5948 10.5418 89.952C8.81107 92.0481 7.31419 94.5168 6.33187 96.9233C5.58343 98.7244 4.75704 100.929 4.75704 101.1C4.75704 101.178 4.66348 101.473 4.53874 101.737C4.414 102.016 4.08655 103.072 3.82149 104.096C3.55641 105.121 3.22897 106.379 3.08864 106.891C2.85475 107.807 2.71442 108.941 2.43375 112.326C2.35579 113.273 2.19987 114.22 2.10631 114.453C1.95039 114.779 1.96598 114.981 2.15309 115.54C2.29342 115.897 2.43375 116.518 2.49612 116.906C2.65205 118.101 3.52522 120.337 4.414 121.905C6.09798 124.871 8.88904 127.122 11.7425 127.852C12.2258 127.976 13.021 128.178 13.4888 128.302C13.9565 128.427 14.6894 128.566 15.0949 128.628C15.5626 128.69 15.9836 128.861 16.1863 129.063C16.6073 129.482 18.0574 129.653 20.3495 129.529C21.628 129.451 22.049 129.374 22.2518 129.172C22.3921 129.016 23.0003 128.784 23.5771 128.644C25.074 128.302 26.5553 127.728 27.9898 126.92C29.5491 126.035 30.3754 125.43 32.8078 123.411C34.5386 121.983 34.9128 121.564 35.9887 119.996C37.2674 118.117 37.4545 117.822 37.9533 116.828C38.1249 116.487 38.3743 116.036 38.4991 115.819C39.0917 114.841 40.9316 110.136 41.4149 108.366C41.9451 106.457 41.9607 106.022 41.5709 105.183C40.9316 103.786 40.3079 103.569 35.9419 103.274C33.0729 103.072 26.1343 103.475 23.2341 104.019C22.8131 104.096 21.6905 104.267 20.7393 104.392C17.4805 104.842 16.0304 105.742 14.7518 108.118C14.2372 109.096 14.1125 110.121 14.44 110.959C14.8453 112.046 17.0906 113.645 18.1977 113.645C18.6187 113.645 21.0199 113.102 22.548 112.652C25.5106 111.782 26.2434 111.596 28.0365 111.239C31.0303 110.649 31.4202 110.711 31.4202 111.751C31.4202 112.481 30.8276 114.36 30.3911 115.027C29.5334 116.331 29.0969 116.844 28.0365 117.76C25.5573 119.933 22.7351 121.036 18.8682 121.331C17.8858 121.409 17.3245 121.362 16.2486 121.114C14.6894 120.741 13.8162 120.229 12.9587 119.188C11.3527 117.232 10.2924 111.922 10.8537 108.599C10.9472 108.087 11.072 107.202 11.1499 106.612C11.2279 106.037 11.4774 104.951 11.7113 104.205C12.0855 102.963 12.335 102.435 13.5824 100.215C13.8162 99.7802 14.1749 99.1281 14.3932 98.7399C14.5959 98.3672 14.8921 97.8549 15.0636 97.6376C15.2195 97.4047 15.3599 97.1718 15.3599 97.1252C15.3599 96.7526 19.6166 91.8306 20.6457 91.0077C22.3921 89.6414 23.6239 89.3308 26.2747 89.5483C27.5688 89.6569 28.3017 89.7966 28.9253 90.0761C30.3443 90.6816 31.5137 91.4114 32.3401 92.2188C33.8369 93.6627 35.1312 93.5852 36.9555 91.9393C37.8442 91.1319 38.733 89.8122 38.7486 89.3154C38.7486 88.6012 36.8151 86.6758 34.4607 85.0612C32.4336 83.6793 29.6894 82.2819 28.2393 81.8938C27.8027 81.785 27.1322 81.5832 26.758 81.4434C26.1187 81.2106 24.3411 81.1329 23.312 81.3037Z" fill="black"/>
<path d="M69.404 85.8996C68.5463 86.7846 68.5308 86.8156 66.6285 89.7346C65.9268 90.8059 64.695 92.6846 63.8843 93.9267C63.0734 95.1689 61.8884 96.9855 61.2335 97.9636C60.5942 98.9418 59.8614 100.029 59.6275 100.37C59.1909 100.991 55.8541 106.395 55.1369 107.637C54.9341 107.994 54.6067 108.568 54.404 108.91C54.2013 109.251 53.8582 109.841 53.64 110.23C53.4061 110.618 53.063 111.208 52.8604 111.549C52.6577 111.891 52.3303 112.45 52.1431 112.791C51.956 113.133 51.6909 113.583 51.535 113.801C51.2232 114.251 48.822 118.459 47.9175 120.166C47.5745 120.803 46.9664 121.859 46.561 122.495C45.875 123.598 45.8438 123.722 45.8438 124.778C45.8438 126.346 46.0776 126.625 47.9643 127.262C48.7752 127.542 49.6795 127.774 49.9757 127.774C51.0516 127.774 52.4861 126.625 53.484 124.995C53.562 124.855 53.7491 124.56 53.905 124.328C54.2481 123.815 55.6515 121.051 56.5246 119.157C56.8677 118.396 57.3198 117.605 57.5069 117.387C57.9435 116.937 58.8791 116.518 59.799 116.393C60.1889 116.331 61.8416 116.114 63.4633 115.881C65.5526 115.602 67.1898 115.477 68.9986 115.446C71.3531 115.431 71.6181 115.462 72.1951 115.757C73.271 116.331 73.7075 117.092 73.9882 118.862C74.3469 121.114 76.0308 125.29 77.2314 126.936C77.7459 127.635 78.775 128.395 79.6015 128.675C80.3031 128.923 81.3946 128.908 81.9091 128.644C82.9695 128.085 83.9362 126.563 84.0766 125.228C84.1389 124.576 84.0609 124.203 83.6088 123.039C83.3124 122.262 82.9539 121.362 82.8291 121.02C82.564 120.322 81.5661 116.487 80.8489 113.412C80.5838 112.294 80.2719 110.975 80.1316 110.462C79.9913 109.95 79.7574 108.941 79.6015 108.211C79.4456 107.481 79.1337 106.084 78.8998 105.106C77.3562 98.6312 75.9684 92.2654 75.4695 89.4085C74.9861 86.5983 74.8146 86.2722 73.3021 85.4804C72.6784 85.1543 72.3198 85.0767 71.3687 85.0767H70.1992L69.404 85.8996ZM68.8115 99.7646C69.404 99.9355 69.8873 101.162 70.168 103.243C70.2304 103.631 70.4019 104.392 70.5579 104.951C70.9321 106.255 71.1035 108.382 70.8853 108.801C70.6514 109.251 69.3572 109.997 67.6265 110.68C66.8 111.021 65.5994 111.534 64.9602 111.844C61.9664 113.273 60.9061 112.465 62.2158 109.733C62.5121 109.112 62.8863 108.382 63.0266 108.133C63.1826 107.869 63.6192 107.14 63.9934 106.503C64.3676 105.867 64.8666 105.028 65.1005 104.64C65.3344 104.252 65.9425 103.149 66.4258 102.187C66.9248 101.224 67.5329 100.262 67.7824 100.06C68.2814 99.6405 68.2969 99.6405 68.8115 99.7646Z" fill="black"/>
</g>
<defs>
<clipPath id="clip0_79_85">
<rect width="176" height="80" fill="white" transform="translate(2 50)"/>
</clipPath>
</defs>
</svg>
